<?xml version="1.0" encoding="UTF-8"?>
<svg version="1.1" xmlns="http://www.w3.org/2000/svg" width="61" height="80">
<path d="M0 0 C20.13 0 40.26 0 61 0 C61 26.4 61 52.8 61 80 C40.87 80 20.74 80 0 80 C0 53.6 0 27.2 0 0 Z " fill="#FBBF0F" transform="translate(0,0)"/>
<path d="M0 0 C0.33 0.66 0.66 1.32 1 2 C2.98 2 4.96 2 7 2 C7 2.66 7 3.32 7 4 C7.99 4 8.98 4 10 4 C10 4.66 10 5.32 10 6 C10.5775 6.226875 11.155 6.45375 11.75 6.6875 C15.26442764 8.73758279 17.49189171 11.43333277 18.75 15.3125 C18.8325 15.869375 18.915 16.42625 19 17 C18.01 17.33 17.02 17.66 16 18 C15.505 17.01 15.505 17.01 15 16 C15.495 17.98 15.495 17.98 16 20 C16.99 19.67 17.98 19.34 19 19 C20.07917226 22.23751678 20.11425601 24.57751771 20.09765625 27.98046875 C20.09443359 29.14384766 20.09121094 30.30722656 20.08789062 31.50585938 C20.07532227 33.32827148 20.07532227 33.32827148 20.0625 35.1875 C20.05798828 36.41404297 20.05347656 37.64058594 20.04882812 38.90429688 C20.03703065 41.93624668 20.02056921 44.96809906 20 48 C17.77009273 47.93965068 15.5409464 47.8507725 13.3125 47.75 C12.07113281 47.70359375 10.82976563 47.6571875 9.55078125 47.609375 C5.58408325 46.92862155 3.87295664 45.74661246 1 43 C0.67 43.99 0.34 44.98 0 46 C0.66 46.33 1.32 46.66 2 47 C0.68 47.66 -0.64 48.32 -2 49 C-2 49.66 -2 50.32 -2 51 C-1.34 51 -0.68 51 0 51 C0 51.99 0 52.98 0 54 C0.99 54 1.98 54 3 54 C3 53.34 3 52.68 3 52 C4.32 52 5.64 52 7 52 C7 52.66 7 53.32 7 54 C7.66 54 8.32 54 9 54 C9 53.34 9 52.68 9 52 C10.32 52 11.64 52 13 52 C13 52.66 13 53.32 13 54 C13.99 54 14.98 54 16 54 C16 55.98 16 57.96 16 60 C15.01 60 14.02 60 13 60 C13 58.35 13 56.7 13 55 C8.545 55.495 8.545 55.495 4 56 C3.67 57.32 3.34 58.64 3 60 C2.34 60 1.68 60 1 60 C0.67 58.68 0.34 57.36 0 56 C-0.66 56 -1.32 56 -2 56 C-2.33 57.32 -2.66 58.64 -3 60 C-3.66 60 -4.32 60 -5 60 C-5.33 58.68 -5.66 57.36 -6 56 C-6.66 56 -7.32 56 -8 56 C-8.33 57.65 -8.66 59.3 -9 61 C-5.77093849 61.16874595 -2.54173589 61.33462737 0.6875 61.5 C1.59951172 61.54769531 2.51152344 61.59539062 3.45117188 61.64453125 C4.33740234 61.68964844 5.22363281 61.73476562 6.13671875 61.78125 C7.35427856 61.8440918 7.35427856 61.8440918 8.59643555 61.90820312 C11.06671004 62.00254779 13.52817489 62.01538879 16 62 C16 62.99 16 63.98 16 65 C2.47 65 -11.06 65 -25 65 C-25 64.01 -25 63.02 -25 62 C-21.535 61.505 -21.535 61.505 -18 61 C-18 59.02 -18 57.04 -18 55 C-18.99 55 -19.98 55 -21 55 C-21 56.65 -21 58.3 -21 60 C-21.33 60 -21.66 60 -22 60 C-22.25 54.375 -22.25 54.375 -20 51 C-19.34 51 -18.68 51 -18 51 C-18 51.99 -18 52.98 -18 54 C-17.01 54 -16.02 54 -15 54 C-15 53.34 -15 52.68 -15 52 C-14.01 52 -13.02 52 -12 52 C-12 52.66 -12 53.32 -12 54 C-11.01 54 -10.02 54 -9 54 C-8.67 52.35 -8.34 50.7 -8 49 C-9.32 48.67 -10.64 48.34 -12 48 C-10.45941767 42.98491285 -8.97068161 38.3852919 -6 34 C-4.515 34.495 -4.515 34.495 -3 35 C-3 35.99 -3 36.98 -3 38 C-2.34 38 -1.68 38 -1 38 C-1.01160156 37.36191406 -1.02320312 36.72382812 -1.03515625 36.06640625 C-1.04417969 35.24011719 -1.05320312 34.41382813 -1.0625 33.5625 C-1.07410156 32.73878906 -1.08570312 31.91507813 -1.09765625 31.06640625 C-1 29 -1 29 0 28 C2.67058851 27.85884839 5.32432238 27.95752893 8 28 C8 27.34 8 26.68 8 26 C10 24.375 10 24.375 12 23 C11.49947804 20.16370891 10.85031582 17.55094746 9.9375 14.8125 C9 12 9 12 9 10 C6.69 10.66 4.38 11.32 2 12 C1.67 11.01 1.34 10.02 1 9 C-0.98 9 -2.96 9 -5 9 C-5.33 8.34 -5.66 7.68 -6 7 C-6.99 7 -7.98 7 -9 7 C-9.33 7.66 -9.66 8.32 -10 9 C-12.5625 9.625 -12.5625 9.625 -15 10 C-15.33 10.99 -15.66 11.98 -16 13 C-17.65 13.33 -19.3 13.66 -21 14 C-19.70700306 11.11562221 -18.34058637 9.12780579 -16 7 C-16.99 6.67 -17.98 6.34 -19 6 C-17.42833389 2.85666778 -14.70110982 2.17885177 -11.56640625 0.8203125 C-7.5866486 -0.45175615 -4.15051658 -0.26352486 0 0 Z " fill="#F37C1E" transform="translate(35,4)"/>
<path d="M0 0 C1.32 0 2.64 0 4 0 C4 23.43 4 46.86 4 71 C21.82 71 39.64 71 58 71 C58 47.57 58 24.14 58 0 C58.99 0 59.98 0 61 0 C61 26.4 61 52.8 61 80 C40.87 80 20.74 80 0 80 C0 53.6 0 27.2 0 0 Z " fill="#FFF2BE" transform="translate(0,0)"/>
<path d="M0 0 C1.32 0.33 2.64 0.66 4 1 C4 1.66 4 2.32 4 3 C5.98 2.67 7.96 2.34 10 2 C10.33 3.32 10.66 4.64 11 6 C11.99 5.34 12.98 4.68 14 4 C15.32 4 16.64 4 18 4 C19.99913515 6.99870273 20.42306794 8.53840765 21 12 C21.2475 12.86625 21.495 13.7325 21.75 14.625 C22 17 22 17 20.6875 18.8125 C19 20 19 20 17 20 C17 20.66 17 21.32 17 22 C13.04 22.495 13.04 22.495 9 23 C8.67 25.97 8.34 28.94 8 32 C7.34 32 6.68 32 6 32 C5.67 31.01 5.34 30.02 5 29 C4.34 29 3.68 29 3 29 C2.67 29.66 2.34 30.32 2 31 C1.01 31 0.02 31 -1 31 C-1 28.03 -1 25.06 -1 22 C-1.71027344 22.01160156 -2.42054687 22.02320312 -3.15234375 22.03515625 C-4.07144531 22.04417969 -4.99054687 22.05320312 -5.9375 22.0625 C-6.85402344 22.07410156 -7.77054688 22.08570312 -8.71484375 22.09765625 C-11 22 -11 22 -12 21 C-11.979375 20.13375 -11.95875 19.2675 -11.9375 18.375 C-12.00900908 14.51350948 -12.8279913 11.66252718 -14 8 C-13.34 7.34 -12.68 6.68 -12 6 C-9.375 6.375 -9.375 6.375 -7 7 C-6.67 5.68 -6.34 4.36 -6 3 C-4.35 3 -2.7 3 -1 3 C-0.67 2.01 -0.34 1.02 0 0 Z " fill="#FEC00E" transform="translate(26,10)"/>
<path d="M0 0 C3 1 3 1 4.125 2.6875 C5 5 5 5 5.5 8.125 C5.73686321 11.12052548 5.73686321 11.12052548 8 13 C6.02 13.99 6.02 13.99 4 15 C4 15.66 4 16.32 4 17 C4.66 17 5.32 17 6 17 C6 17.99 6 18.98 6 20 C6.99 20 7.98 20 9 20 C9 19.34 9 18.68 9 18 C10.32 18 11.64 18 13 18 C13 18.66 13 19.32 13 20 C13.66 20 14.32 20 15 20 C15 19.34 15 18.68 15 18 C16.32 18 17.64 18 19 18 C19 18.66 19 19.32 19 20 C19.99 20 20.98 20 22 20 C22 21.98 22 23.96 22 26 C21.01 26 20.02 26 19 26 C19 24.35 19 22.7 19 21 C16.03 21.33 13.06 21.66 10 22 C9.67 23.32 9.34 24.64 9 26 C8.34 26 7.68 26 7 26 C6.67 24.68 6.34 23.36 6 22 C5.34 22 4.68 22 4 22 C3.67 23.32 3.34 24.64 3 26 C2.34 26 1.68 26 1 26 C0.67 24.68 0.34 23.36 0 22 C-0.66 22 -1.32 22 -2 22 C-2.33 23.65 -2.66 25.3 -3 27 C0.22906151 27.16874595 3.45826411 27.33462737 6.6875 27.5 C8.05551758 27.57154297 8.05551758 27.57154297 9.45117188 27.64453125 C10.78051758 27.71220703 10.78051758 27.71220703 12.13671875 27.78125 C12.94842529 27.82314453 13.76013184 27.86503906 14.59643555 27.90820312 C17.06671004 28.00254779 19.52817489 28.01538879 22 28 C22 28.99 22 29.98 22 31 C8.47 31 -5.06 31 -19 31 C-19 30.01 -19 29.02 -19 28 C-15.535 27.505 -15.535 27.505 -12 27 C-12 25.02 -12 23.04 -12 21 C-12.99 21 -13.98 21 -15 21 C-15 22.65 -15 24.3 -15 26 C-15.33 26 -15.66 26 -16 26 C-16.25 20.375 -16.25 20.375 -14 17 C-13.34 17 -12.68 17 -12 17 C-12 17.99 -12 18.98 -12 20 C-11.01 20 -10.02 20 -9 20 C-9 19.34 -9 18.68 -9 18 C-8.01 18 -7.02 18 -6 18 C-6 18.66 -6 19.32 -6 20 C-5.01 20 -4.02 20 -3 20 C-2.67 18.35 -2.34 16.7 -2 15 C-3.32 14.67 -4.64 14.34 -6 14 C-4.45941767 8.98491285 -2.97068161 4.3852919 0 0 Z " fill="#F59619" transform="translate(29,38)"/>
<path d="M0 0 C0.66 0.33 1.32 0.66 2 1 C1.690625 1.7425 1.38125 2.485 1.0625 3.25 C0.711875 4.1575 0.36125 5.065 0 6 C-0.2475 6.639375 -0.495 7.27875 -0.75 7.9375 C-1.11213008 10.92507315 0.02241974 13.18226867 1 16 C1.125 18.875 1.125 18.875 1 21 C3.97 21.33 6.94 21.66 10 22 C10.10864945 24.06132142 10.18588321 26.12431321 10.25 28.1875 C10.29640625 29.33605469 10.3428125 30.48460938 10.390625 31.66796875 C9.91737937 35.70475395 8.94693689 37.23818479 6 40 C3.52734375 40.92578125 3.52734375 40.92578125 0.9375 41.3125 C0.08027344 41.45300781 -0.77695313 41.59351563 -1.66015625 41.73828125 C-4 42 -4 42 -7 42 C-7 31.77 -7 21.54 -7 11 C-6.34 10.67 -5.68 10.34 -5 10 C-4.39938767 8.09821215 -4.39938767 8.09821215 -4 6 C-3.0022242 3.00667261 -2.2477975 2.05233685 0 0 Z " fill="#F4791F" transform="translate(14,10)"/>
<path d="M0 0 C1.32 0 2.64 0 4 0 C4 23.76 4 47.52 4 72 C5.65 72 7.3 72 9 72 C9 72.33 9 72.66 9 73 C7.35 73 5.7 73 4 73 C4 74.32 4 75.64 4 77 C4.99 77.33 5.98 77.66 7 78 C6.01 78 5.02 78 4 78 C4 78.66 4 79.32 4 80 C2.68 80 1.36 80 0 80 C0 53.6 0 27.2 0 0 Z " fill="#FEF7E4" transform="translate(0,0)"/>
<path d="M0 0 C0.99 0 1.98 0 3 0 C3 26.4 3 52.8 3 80 C1.35 80 -0.3 80 -2 80 C-2 78.35 -2 76.7 -2 75 C-1.34 75 -0.68 75 0 75 C0 74.34 0 73.68 0 73 C-0.66 72.67 -1.32 72.34 -2 72 C-1.34 72 -0.68 72 0 72 C0 48.24 0 24.48 0 0 Z " fill="#FEFDFA" transform="translate(58,0)"/>
<path d="M0 0 C0 1.32 0 2.64 0 4 C2.30546693 5.15273347 3.82684711 5.19809777 6.39453125 5.31640625 C7.70454102 5.37924805 7.70454102 5.37924805 9.04101562 5.44335938 C9.95560547 5.48267578 10.87019531 5.52199219 11.8125 5.5625 C13.16698242 5.62727539 13.16698242 5.62727539 14.54882812 5.69335938 C18.7042175 5.88571024 22.83944171 6.02169602 27 6 C27 6.99 27 7.98 27 9 C13.47 9 -0.06 9 -14 9 C-14 8.01 -14 7.02 -14 6 C-10.535 5.505 -10.535 5.505 -7 5 C-7 3.35 -7 1.7 -7 0 C-3.86650268 -1.04449911 -3.01031744 -0.93423645 0 0 Z " fill="#F9B011" transform="translate(24,60)"/>
<path d="M0 0 C0.66 0.33 1.32 0.66 2 1 C1.566875 1.99 1.566875 1.99 1.125 3 C-2.00528817 11.34743513 -2.40051787 19.14230925 -2.625 28 C-2.68300781 29.87751953 -2.68300781 29.87751953 -2.7421875 31.79296875 C-2.83589341 34.8618372 -2.9216107 37.93070853 -3 41 C-4.98 41.495 -4.98 41.495 -7 42 C-7 31.77 -7 21.54 -7 11 C-6.34 10.67 -5.68 10.34 -5 10 C-4.39938767 8.09821215 -4.39938767 8.09821215 -4 6 C-3.0022242 3.00667261 -2.2477975 2.05233685 0 0 Z " fill="#E4A80F" transform="translate(14,10)"/>
<path d="M0 0 C0.33 0.66 0.66 1.32 1 2 C2.98 2 4.96 2 7 2 C7 2.66 7 3.32 7 4 C7.99 4 8.98 4 10 4 C10 4.66 10 5.32 10 6 C10.5775 6.226875 11.155 6.45375 11.75 6.6875 C15.26442764 8.73758279 17.49189171 11.43333277 18.75 15.3125 C18.8325 15.869375 18.915 16.42625 19 17 C18.01 17.33 17.02 17.66 16 18 C15.69707031 17.45730469 15.39414062 16.91460938 15.08203125 16.35546875 C12.1979875 11.43040942 9.90815162 8.26726912 4.27734375 6.44140625 C1.20255776 5.84543572 -1.74457044 5.86826789 -4.875 5.875 C-6.06867187 5.87242188 -7.26234375 5.86984375 -8.4921875 5.8671875 C-11.75347351 5.99066604 -14.79938334 6.38336743 -18 7 C-18 6.01 -18 5.02 -18 4 C-11.71546794 0.67202085 -7.11341265 -0.45164525 0 0 Z " fill="#A0700B" transform="translate(35,4)"/>
<path d="M0 0 C0.66 0 1.32 0 2 0 C3.07917226 3.23751678 3.11425601 5.57751771 3.09765625 8.98046875 C3.09282227 10.72553711 3.09282227 10.72553711 3.08789062 12.50585938 C3.07951172 13.72080078 3.07113281 14.93574219 3.0625 16.1875 C3.05798828 17.41404297 3.05347656 18.64058594 3.04882812 19.90429688 C3.03703065 22.93624668 3.02056921 25.96809906 3 29 C1.35 28.67 -0.3 28.34 -2 28 C-2.05783842 23.70838953 -2.0935412 19.41687855 -2.125 15.125 C-2.14175781 13.90167969 -2.15851562 12.67835937 -2.17578125 11.41796875 C-2.18222656 10.25136719 -2.18867187 9.08476563 -2.1953125 7.8828125 C-2.20578613 6.80402832 -2.21625977 5.72524414 -2.22705078 4.61376953 C-2 2 -2 2 0 0 Z " fill="#EEB60D" transform="translate(52,23)"/>
<path d="M0 0 C3 1 3 1 4.125 2.6875 C5 5 5 5 5.5 8.125 C5.73686321 11.12052548 5.73686321 11.12052548 8 13 C6.5625 14.5625 6.5625 14.5625 4 16 C0.94619073 15.96846324 -1.99653222 15.53266629 -5 15 C-5 9.09596234 -3.17982236 4.91427091 0 0 Z " fill="#0D0A00" transform="translate(29,38)"/>
<path d="M0 0 C0.97582031 0.00902344 1.95164062 0.01804687 2.95703125 0.02734375 C3.69308594 0.03894531 4.42914063 0.05054687 5.1875 0.0625 C5.1875 2.7025 5.1875 5.3425 5.1875 8.0625 C-0.0925 8.0625 -5.3725 8.0625 -10.8125 8.0625 C-10.8125 5.7525 -10.8125 3.4425 -10.8125 1.0625 C-7.13862505 0.20951624 -3.7677607 -0.04539471 0 0 Z " fill="#C9CAE3" transform="translate(14.8125,71.9375)"/>
<path d="M0 0 C0.66 0.33 1.32 0.66 2 1 C2 1.66 2 2.32 2 3 C1.34 3 0.68 3 0 3 C0 4.65 0 6.3 0 8 C-4.29 8 -8.58 8 -13 8 C-13 6.02 -13 4.04 -13 2 C-8.49009758 -0.25495121 -4.94269981 -0.2430836 0 0 Z " fill="#DFDFEE" transform="translate(56,72)"/>
<path d="M0 0 C-0.99 0.33 -1.98 0.66 -3 1 C-3 3.31 -3 5.62 -3 8 C-4.47906892 8.02689216 -5.95827483 8.04634621 -7.4375 8.0625 C-8.67306641 8.07990234 -8.67306641 8.07990234 -9.93359375 8.09765625 C-12 8 -12 8 -13 7 C-13.04063832 5.33382885 -13.042721 3.66611905 -13 2 C-8.50343896 -0.24828052 -4.92127034 -0.16682272 0 0 Z " fill="#FCFCFD" transform="translate(38,72)"/>
<path d="M0 0 C8.58 0 17.16 0 26 0 C26 0.99 26 1.98 26 3 C17.42 3 8.84 3 0 3 C0 2.01 0 1.02 0 0 Z " fill="#886707" transform="translate(25,66)"/>
<path d="M0 0 C5.75 -0.125 5.75 -0.125 8 1 C8 1.99 8 2.98 8 4 C7.01 4 6.02 4 5 4 C5 3.01 5 2.02 5 1 C4.01 1 3.02 1 2 1 C2 2.32 2 3.64 2 5 C1.01 5.495 1.01 5.495 0 6 C-0.65213292 8.02463255 -0.65213292 8.02463255 -1 10 C-1.66 10 -2.32 10 -3 10 C-3.103125 9.360625 -3.20625 8.72125 -3.3125 8.0625 C-3.539375 7.381875 -3.76625 6.70125 -4 6 C-4.99 5.67 -5.98 5.34 -7 5 C-7.33 5.66 -7.66 6.32 -8 7 C-10.475 6.01 -10.475 6.01 -13 5 C-13 6.65 -13 8.3 -13 10 C-13.33 10 -13.66 10 -14 10 C-14.25 4.375 -14.25 4.375 -12 1 C-11.34 1 -10.68 1 -10 1 C-10 1.99 -10 2.98 -10 4 C-9.01 4 -8.02 4 -7 4 C-7 3.34 -7 2.68 -7 2 C-6.01 2 -5.02 2 -4 2 C-4 2.66 -4 3.32 -4 4 C-3.01 4 -2.02 4 -1 4 C-0.67 2.68 -0.34 1.36 0 0 Z " fill="#E9831B" transform="translate(27,54)"/>
<path d="M0 0 C0.90105469 0.00902344 1.80210938 0.01804687 2.73046875 0.02734375 C3.41753906 0.03894531 4.10460938 0.05054687 4.8125 0.0625 C4.173125 0.330625 3.53375 0.59875 2.875 0.875 C0.48118314 1.94917752 0.48118314 1.94917752 -0.1875 5.0625 C0.8025 5.3925 1.7925 5.7225 2.8125 6.0625 C1.8225 6.0625 0.8325 6.0625 -0.1875 6.0625 C-0.1875 6.7225 -0.1875 7.3825 -0.1875 8.0625 C-2.8275 8.0625 -5.4675 8.0625 -8.1875 8.0625 C-8.1875 5.7525 -8.1875 3.4425 -8.1875 1.0625 C-5.17259443 0.05753148 -3.14568308 -0.04085303 0 0 Z " fill="#E2E3EF" transform="translate(43.1875,71.9375)"/>
<path d="M0 0 C0.66 0 1.32 0 2 0 C2 0.66 2 1.32 2 2 C2.5775 2.226875 3.155 2.45375 3.75 2.6875 C7.26442764 4.73758279 9.49189171 7.43333277 10.75 11.3125 C10.87375 12.1478125 10.87375 12.1478125 11 13 C10.01 13.33 9.02 13.66 8 14 C7.68546875 13.45730469 7.3709375 12.91460937 7.046875 12.35546875 C3.84458697 6.93281161 3.84458697 6.93281161 -1 3 C-0.67 2.01 -0.34 1.02 0 0 Z " fill="#695005" transform="translate(43,8)"/>
<path d="M0 0 C3.3 0 6.6 0 10 0 C8.02 0.99 8.02 0.99 6 2 C6 3.98 6 5.96 6 8 C4.02 8 2.04 8 0 8 C0 5.36 0 2.72 0 0 Z " fill="#FDFDFE" transform="translate(20,72)"/>
<path d="M0 0 C0.99 0 1.98 0 3 0 C3 5.28 3 10.56 3 16 C2.01 16 1.02 16 0 16 C0 10.72 0 5.44 0 0 Z " fill="#705506" transform="translate(52,27)"/>
<path d="M0 0 C0.66 0 1.32 0 2 0 C3.125 3.75 3.125 3.75 2 6 C1.34 6 0.68 6 0 6 C-0.33 13.26 -0.66 20.52 -1 28 C-1.33 28 -1.66 28 -2 28 C-2.05783842 23.70838953 -2.0935412 19.41687855 -2.125 15.125 C-2.14175781 13.90167969 -2.15851562 12.67835937 -2.17578125 11.41796875 C-2.18222656 10.25136719 -2.18867187 9.08476563 -2.1953125 7.8828125 C-2.20578613 6.80402832 -2.21625977 5.72524414 -2.22705078 4.61376953 C-2 2 -2 2 0 0 Z " fill="#F78C1A" transform="translate(52,23)"/>
<path d="M0 0 C0.99 0 1.98 0 3 0 C3 0.66 3 1.32 3 2 C3.66 2 4.32 2 5 2 C5 1.34 5 0.68 5 0 C6.32 0 7.64 0 9 0 C9 0.66 9 1.32 9 2 C9.99 2 10.98 2 12 2 C12 3.98 12 5.96 12 8 C11.01 8 10.02 8 9 8 C9 6.35 9 4.7 9 3 C8.443125 3.185625 7.88625 3.37125 7.3125 3.5625 C4.600867 4.07551165 2.65628961 3.6640724 0 3 C0 2.01 0 1.02 0 0 Z " fill="#EA7E1C" transform="translate(39,56)"/>
<path d="M0 0 C1.65 0 3.3 0 5 0 C5 1.98 5 3.96 5 6 C4.01 6 3.02 6 2 6 C1.67 6.66 1.34 7.32 1 8 C1 7.34 1 6.68 1 6 C-0.32 5.67 -1.64 5.34 -3 5 C-2.34 5 -1.68 5 -1 5 C-0.67 3.35 -0.34 1.7 0 0 Z " fill="#FAAA13" transform="translate(39,59)"/>
<path d="M0 0 C0.66 0 1.32 0 2 0 C2.09507063 6.43311296 2.15316726 12.65758005 1 19 C0.34 19 -0.32 19 -1 19 C-1.02697137 16.39576408 -1.04682489 13.79180756 -1.0625 11.1875 C-1.07087891 10.44951172 -1.07925781 9.71152344 -1.08789062 8.95117188 C-1.10259828 5.70077932 -1.03531702 3.10595105 0 0 Z " fill="#5E4705" transform="translate(8,22)"/>
<path d="M0 0 C3.96 0 7.92 0 12 0 C12 0.99 12 1.98 12 3 C8.04 3 4.08 3 0 3 C0 2.01 0 1.02 0 0 Z " fill="#866607" transform="translate(10,66)"/>
<path d="M0 0 C0.89203125 0.00902344 1.7840625 0.01804687 2.703125 0.02734375 C3.37859375 0.03894531 4.0540625 0.05054687 4.75 0.0625 C4.75 1.0525 4.75 2.0425 4.75 3.0625 C2.97950311 3.11660687 1.20853151 3.15534119 -0.5625 3.1875 C-2.04169922 3.22230469 -2.04169922 3.22230469 -3.55078125 3.2578125 C-6.25 3.0625 -6.25 3.0625 -9.25 1.0625 C-6.09493858 0.12630187 -3.28413498 -0.0432123 0 0 Z " fill="#765A06" transform="translate(46.25,65.9375)"/>
<path d="M0 0 C0.66 0 1.32 0 2 0 C2 0.99 2 1.98 2 3 C2.99 3 3.98 3 5 3 C5 2.34 5 1.68 5 1 C5.99 1 6.98 1 8 1 C8 3 8 3 6.3125 4.75 C4 6 4 6 1.25 5.1875 C0.5075 4.795625 -0.235 4.40375 -1 4 C-1 5.65 -1 7.3 -1 9 C-1.33 9 -1.66 9 -2 9 C-2.25 3.375 -2.25 3.375 0 0 Z " fill="#A15E12" transform="translate(15,55)"/>
<path d="M0 0 C1.32 0 2.64 0 4 0 C4 2.31 4 4.62 4 7 C2.35 6.67 0.7 6.34 -1 6 C-1.042721 4.33388095 -1.04063832 2.66617115 -1 1 C-0.67 0.67 -0.34 0.34 0 0 Z " fill="#6B6EB4" transform="translate(26,73)"/>
<path d="M0 0 C0.66 0.33 1.32 0.66 2 1 C0.80100302 4.0831351 -0.47700477 7.06279492 -2 10 C-2.99 10 -3.98 10 -5 10 C-3.99480361 5.83561496 -3.22782646 2.9471459 0 0 Z " fill="#7A5D06" transform="translate(14,10)"/>
<path d="M0 0 C1.32 0 2.64 0 4 0 C4 1.98 4 3.96 4 6 C2.35 6.33 0.7 6.66 -1 7 C-1.04254356 5.00045254 -1.04080783 2.99958364 -1 1 C-0.67 0.67 -0.34 0.34 0 0 Z " fill="#5F62AD" transform="translate(44,73)"/>
<path d="M0 0 C1.98 0 3.96 0 6 0 C6.33 0.99 6.66 1.98 7 3 C6.34 3.66 5.68 4.32 5 5 C2.69 4.34 0.38 3.68 -2 3 C-1.34 2.67 -0.68 2.34 0 2 C0 1.34 0 0.68 0 0 Z " fill="#BA880C" transform="translate(36,6)"/>
<path d="M0 0 C2.97 0 5.94 0 9 0 C9 0.99 9 1.98 9 3 C6.04335481 4.4783226 3.25770263 4.06032783 0 4 C0.99 3.34 1.98 2.68 3 2 C2.01 1.34 1.02 0.68 0 0 Z " fill="#B78C0A" transform="translate(26,4)"/>
<path d="M0 0 C1.32 0 2.64 0 4 0 C4 2.31 4 4.62 4 7 C2.68 7 1.36 7 0 7 C0 4.69 0 2.38 0 0 Z " fill="#5D60AC" transform="translate(4,73)"/>
<path d="M0 0 C0.99 0 1.98 0 3 0 C2.67 2.97 2.34 5.94 2 9 C1.34 9 0.68 9 0 9 C0 6.03 0 3.06 0 0 Z " fill="#6D5306" transform="translate(7,42)"/>
<path d="M0 0 C0.99 0 1.98 0 3 0 C3 2.97 3 5.94 3 9 C2.01 9 1.02 9 0 9 C0 6.03 0 3.06 0 0 Z " fill="#886807" transform="translate(52,27)"/>
<path d="M0 0 C2.79872437 2.52788007 4.45773019 4.20411134 5 8 C4.01 8.33 3.02 8.66 2 9 C0.50178941 5.62902617 0 3.79557881 0 0 Z " fill="#8A6907" transform="translate(49,13)"/>
<path d="M0 0 C0.99 0 1.98 0 3 0 C3 0.66 3 1.32 3 2 C3.66 2 4.32 2 5 2 C5 1.34 5 0.68 5 0 C5.99 0 6.98 0 8 0 C8 0.99 8 1.98 8 3 C4.71023192 4.09658936 3.28696233 3.79953138 0 3 C0 2.01 0 1.02 0 0 Z " fill="#85560C" transform="translate(39,56)"/>
<path d="M0 0 C5.75 -0.125 5.75 -0.125 8 1 C8 1.99 8 2.98 8 4 C7.01 4 6.02 4 5 4 C5 3.01 5 2.02 5 1 C4.01 1 3.02 1 2 1 C2 1.99 2 2.98 2 4 C1.34 4 0.68 4 0 4 C0 2.68 0 1.36 0 0 Z " fill="#7C5F06" transform="translate(27,54)"/>
<path d="M0 0 C0.98120464 3.05263664 0.98120464 4.94736336 0 8 C-0.66 8 -1.32 8 -2 8 C-2.185625 7.071875 -2.185625 7.071875 -2.375 6.125 C-2.87197356 3.80879168 -2.87197356 3.80879168 -5 2 C-3.35 2 -1.7 2 0 2 C0 1.34 0 0.68 0 0 Z " fill="#ED821C" transform="translate(38,56)"/>
<path d="M0 0 C0.99 0 1.98 0 3 0 C3 2.64 3 5.28 3 8 C1.5 6.8125 1.5 6.8125 0 5 C-0.1875 2.3125 -0.1875 2.3125 0 0 Z " fill="#765A06" transform="translate(52,44)"/>
<path d="M0 0 C2.31 0 4.62 0 7 0 C7 0.99 7 1.98 7 3 C4.69 3 2.38 3 0 3 C0 2.01 0 1.02 0 0 Z " fill="#AD8409" transform="translate(33,66)"/>
<path d="M0 0 C0.66 0 1.32 0 2 0 C3.125 3.75 3.125 3.75 2 6 C1.34 6 0.68 6 0 6 C-0.33 6.66 -0.66 7.32 -1 8 C-1.04241723 5.66705225 -1.04092937 3.33297433 -1 1 C-0.67 0.67 -0.34 0.34 0 0 Z " fill="#BB910A" transform="translate(52,23)"/>
<path d="M0 0 C-0.33 1.98 -0.66 3.96 -1 6 C-1.66 5.67 -2.32 5.34 -3 5 C-3 4.67 -3 4.34 -3 4 C-3.99 4.495 -3.99 4.495 -5 5 C-5 3.68 -5 2.36 -5 1 C-2 0 -2 0 0 0 Z " fill="#D49D0D" transform="translate(12,20)"/>
</svg>
